<?xml version="1.0" encoding="utf-8"?>
<!-- Generator: Adobe Illustrator 22.0.0, SVG Export Plug-In . SVG Version: 6.00 Build 0)  -->
<svg version="1.1" id="图层_1" xmlns="http://www.w3.org/2000/svg" xmlns:xlink="http://www.w3.org/1999/xlink" x="0px" y="0px"
	 viewBox="0 0 715.7 416" style="enable-background:new 0 0 715.7 416;" xml:space="preserve">
<style type="text/css">
	.st0{fill:#E32B2E;}
	.st1{opacity:0.84;fill:#F2F0F1;enable-background:new    ;}
	.st2{fill:url(#svg_1_1_);stroke:#E32B2E;stroke-width:4;}
	.st3{fill:none;stroke:#F1605C;stroke-width:3;}
	.st4{fill:none;stroke:#F18057;stroke-width:2;}
	.st5{fill:url(#SVGID_1_);stroke:#EC5B6C;stroke-miterlimit:10;}
	.st6{fill:none;stroke:#FFFFFF;stroke-miterlimit:10;}
	.st7{fill:none;stroke:#FFFFFF;stroke-linecap:round;stroke-linejoin:round;stroke-miterlimit:10;}
	.st8{fill:url(#SVGID_2_);stroke:#EC5B6C;stroke-miterlimit:10;}
	.st9{fill:url(#SVGID_3_);stroke:#EC5B6C;stroke-width:2;stroke-miterlimit:10;}
	.st10{fill:url(#SVGID_4_);stroke:#EC5B6C;stroke-miterlimit:10;}
	.st11{fill:url(#SVGID_5_);stroke:#EC5B6C;stroke-miterlimit:10;}
	.st12{fill:url(#SVGID_6_);stroke:#EC5B6C;stroke-miterlimit:10;}
	.st13{fill:url(#SVGID_7_);stroke:#EC5B6C;stroke-miterlimit:10;}
	.st14{fill:#FFFFFF;}
	.st15{fill:url(#SVGID_8_);stroke:#EC5B6C;stroke-miterlimit:10;}
	.st16{fill:url(#SVGID_9_);stroke:#EC5B6C;stroke-miterlimit:10;}
	.st17{fill:url(#SVGID_10_);stroke:#EC5B6C;stroke-miterlimit:10;}
	.st18{fill:#FAFAFA;}
	.st19{fill:none;stroke:#E32B2E;stroke-width:15;}
	.st20{fill:none;stroke:#E32B2E;stroke-width:8;}
	.st21{fill:none;stroke:#E32B2E;stroke-width:7;}
</style>
<symbol  id="logoSymbol" viewBox="-39.5 -38.5 79.1 77">
	<path class="st0" d="M37.2-38.5h-72.1c-1.3,0-2.4,1-2.4,2.4v17.6h4.7v-15.2h67.4v67.4h-67.4V18.3h-2.9V7.9h2.9V-7.8h-2.9v-10.6h-4
		v10.6h2.1V7.8h-2.1v10.6h2.1v17.7c0,1.3,1,2.4,2.4,2.4h72.2c1.3,0,2.4-1,2.4-2.4v-72.2C39.5-37.4,38.5-38.5,37.2-38.5z"/>
	<path class="st0" d="M25.2,26.2c1.1,0,2-0.9,2-2v-48.3c0-1.1-0.9-2-2-2H-23c-1.1,0-2,0.9-2,2v48.3c0,1.1,0.9,2,2,2H25.2L25.2,26.2z
		 M-21-22.2h44.3v44.3H-21V-22.2z"/>
	<path class="st0" d="M10.6,6.6C12,4.8,12.7,2.4,12.7,0s-0.8-4.8-2.1-6.6l4.2-4.2c0.8-0.8,0.8-2,0-2.8s-2-0.8-2.8,0L7.8-9.4
		c-1.8-1.4-4.2-2.1-6.6-2.1s-4.8,0.8-6.6,2.1l-4.2-4.2c-0.8-0.8-2-0.8-2.8,0s-0.8,2,0,2.8l4.2,4.2c-1.4,1.8-2.1,4.2-2.1,6.6
		s0.8,4.7,2.1,6.6l-4.2,4.2c-0.8,0.8-0.8,2,0,2.8c0.4,0.4,0.9,0.6,1.4,0.6s1-0.2,1.4-0.6l4.2-4.2c1.8,1.4,4.2,2.1,6.6,2.1
		s4.7-0.8,6.6-2.1l4.2,4.2c0.4,0.4,0.9,0.6,1.4,0.6s1-0.2,1.4-0.6c0.8-0.8,0.8-2,0-2.8L10.6,6.6z M-4.2,5.4L-4.2,5.4L-4.2,5.4
		C-5.7,3.9-6.5,2.1-6.5,0c0-4.2,3.4-7.6,7.6-7.6S8.7-4.2,8.7,0S5.3,7.6,1.1,7.6C-0.9,7.6-2.9,6.7-4.2,5.4z"/>
</symbol>
<path class="st1" d="M25.1,248c-8.5,0-16.9,0.5-25.1,1.3V415h214.4c0.4-4,0.5-7.9,0.5-12C215,317.4,129.9,248,25.1,248z"/>
<path class="st1" d="M611.5,415c1.4-8.1,2.2-16.5,2.2-25c0-77.7-62.1-140.7-138.7-140.7s-138.7,63-138.7,140.7
	c0,8.5,0.7,16.9,2.2,25H611.5z"/>
<linearGradient id="svg_1_1_" gradientUnits="userSpaceOnUse" x1="1450.5083" y1="-4.4478" x2="1451.5083" y2="-3.4478" gradientTransform="matrix(154 0 0 154 -223093.1406 779)">
	<stop  offset="0" style="stop-color:#FFAEAA;stop-opacity:0.7"/>
	<stop  offset="1" style="stop-color:#FFFFFF;stop-opacity:0"/>
</linearGradient>
<ellipse id="svg_1" class="st2" cx="362.1" cy="171" rx="77" ry="77"/>
<use xlink:href="#logoSymbol"  width="79.1" height="77" id="ant" x="-39.5" y="-38.5" transform="matrix(1.0108 0 0 1.0108 362.3529 171)" style="overflow:visible;"/>
<ellipse id="svg_6" class="st3" cx="362.1" cy="171" rx="120" ry="120"/>
<ellipse id="svg_5" class="st4" cx="362.1" cy="171" rx="150" ry="150"/>
<g>
	
		<linearGradient id="SVGID_1_" gradientUnits="userSpaceOnUse" x1="200.3" y1="338.8319" x2="200.3" y2="381.0751" gradientTransform="matrix(1 0 0 -1 0 644)">
		<stop  offset="0" style="stop-color:#FE7956"/>
		<stop  offset="1" style="stop-color:#E63332"/>
	</linearGradient>
	<circle class="st5" cx="200.3" cy="284" r="21.1"/>
	<path class="st6" d="M209.9,293.2h-19.3c-0.5,0-1-0.5-1-1v-11c0-0.6,0.5-1,1-1h19.3c0.6,0,1,0.4,1,1v11
		C210.9,292.7,210.5,293.2,209.9,293.2z"/>
	<path class="st6" d="M203.9,280.2h-7.2c-0.6,0-1-0.5-1-1v-1.4c0-0.6,0.4-1,1-1h7.2c0.6,0,1,0.4,1,1v1.4
		C204.9,279.7,204.4,280.2,203.9,280.2z"/>
	<g>
		<line class="st7" x1="197.6" y1="283.2" x2="200.3" y2="285.9"/>
		<line class="st7" x1="202.9" y1="283.2" x2="200.3" y2="285.9"/>
		<line class="st7" x1="197.6" y1="286.1" x2="202.9" y2="286.1"/>
		<line class="st7" x1="197.6" y1="288.3" x2="202.9" y2="288.2"/>
		<line class="st7" x1="200.3" y1="285.9" x2="200.3" y2="290.1"/>
	</g>
</g>
<g>
	
		<linearGradient id="SVGID_2_" gradientUnits="userSpaceOnUse" x1="135.9" y1="389.5624" x2="135.9" y2="417.1252" gradientTransform="matrix(1 0 0 -1 0 644)">
		<stop  offset="0" style="stop-color:#FE7956"/>
		<stop  offset="1" style="stop-color:#E63332"/>
	</linearGradient>
	<circle class="st8" cx="135.9" cy="240.7" r="13.8"/>
	<path class="st6" d="M142.7,243.7h-13.6c-0.5,0-1-0.4-1-1v-6.5c0-0.6,0.5-1,1-1h13.6c0.6,0,1,0.4,1,1v6.5
		C143.7,243.3,143.2,243.7,142.7,243.7z"/>
	<path class="st6" d="M129.9,235.4c0,1-0.8,1.8-1.8,1.8"/>
	<path class="st6" d="M129.9,243.7c0-1-0.8-1.8-1.8-1.8"/>
	<path class="st6" d="M141.6,235.3c0,1,0.8,1.8,1.8,1.8"/>
	<path class="st6" d="M141.6,243.6c0-1,0.8-1.8,1.8-1.8"/>
	<g>
		<line class="st7" x1="133.5" y1="237.4" x2="135.3" y2="239.1"/>
		<line class="st7" x1="137" y1="237.4" x2="135.3" y2="239.1"/>
		<line class="st7" x1="133.6" y1="239.3" x2="137" y2="239.2"/>
		<line class="st7" x1="133.6" y1="240.7" x2="137" y2="240.6"/>
		<line class="st7" x1="135.3" y1="239.1" x2="135.3" y2="241.9"/>
	</g>
	<line class="st7" x1="128.1" y1="246.2" x2="143.5" y2="246.2"/>
</g>
<linearGradient id="SVGID_3_" gradientUnits="userSpaceOnUse" x1="533.2" y1="540.1" x2="533.2" y2="582.3432" gradientTransform="matrix(1 0 0 -1 0 644)">
	<stop  offset="0" style="stop-color:#FE7956"/>
	<stop  offset="1" style="stop-color:#E63332"/>
</linearGradient>
<circle class="st9" cx="533.2" cy="82.8" r="21.1"/>
<path class="st7" d="M543.2,91.4h-19.9c-1.2,0-2.1-1-2.1-2.1v-13c0-1.2,1-2.1,2.1-2.1h19.9c1.2,0,2.1,1,2.1,2.1v13
	C545.3,90.4,544.3,91.4,543.2,91.4z"/>
<line class="st7" x1="528" y1="94.5" x2="538.4" y2="94.5"/>
<g>
	<line class="st7" x1="525.7" y1="87" x2="529.1" y2="80.7"/>
	<line class="st7" x1="535.8" y1="87.2" x2="529.1" y2="80.7"/>
	<line class="st7" x1="542.2" y1="80.1" x2="535.8" y2="87.2"/>
</g>
<linearGradient id="SVGID_4_" gradientUnits="userSpaceOnUse" x1="646.9" y1="441.4" x2="646.9" y2="466.3603" gradientTransform="matrix(1 0 0 -1 0 644)">
	<stop  offset="0" style="stop-color:#FE7956"/>
	<stop  offset="1" style="stop-color:#E63332"/>
</linearGradient>
<circle class="st10" cx="646.9" cy="190.1" r="12.5"/>
<g>
	<path class="st7" d="M644.3,183.1c0.1,0,0.3,0,0.4,0c0.3-0.1,0.4-0.3,0.6-0.4c0.1-0.1,0.3-0.1,0.5-0.1c0.3,0,0.5,0.1,0.7,0.3
		c0.1,0.1,0.2,0.2,0.3,0.2c0.1,0.1,0.3,0,0.4-0.1c0.2-0.1,0.3-0.3,0.5-0.4c0.1-0.1,0.3-0.2,0.5,0c0.1,0.1,0.5,0.2,0.6,0.3
		c0.2,0.2,0.5,0.3,0.8,0.3c0.1,0,0.1-0.1,0.2-0.1c0.1,0,0.5-0.2,0.5-0.2c0.1,0,0.3,0.1,0.4,0.2c0.1,0.1,0.1,0.3,0.1,0.5
		c-0.1,0.1-0.1,0.3-0.2,0.3c-0.1,0.1-0.2,0.2-0.3,0.2c-0.2,0.1-0.3,0.3-0.5,0.5c-0.1,0.1-0.2,0.3-0.3,0.4c-0.1,0.1-0.1,0.2-0.2,0.4
		c-0.1,0.1-0.2,0.3-0.3,0.4c0,0-1.1,0.6-2.1,0.5c-1,0-2-0.6-2-0.6c-0.1-0.2-0.2-0.3-0.3-0.4c-0.1-0.1-0.2-0.3-0.3-0.4
		c-0.1-0.2-0.2-0.3-0.4-0.5s-0.5-0.4-0.7-0.6c-0.2-0.2-0.2-0.6,0.1-0.8c0.1-0.1,0.2,0,0.3,0C643.6,182.9,644.1,183.1,644.3,183.1z"
		/>
	<path class="st7" d="M645.5,197.7c0.3,0,0.7,0,1.1,0"/>
	<path class="st7" d="M644.9,185.9c0,0-3.8,2.4-4,5.6c-0.1,2-0.4,5.7,4.5,6.2"/>
	<path class="st7" d="M652.9,191.9c0.1,2.2,0.1,5.9-5.6,5.9"/>
	<path class="st7" d="M648.9,185.9c0,0,3.8,2.4,4,5.6c0,0.1,0,0.2,0,0.4"/>
	<line class="st7" x1="646.4" y1="197.8" x2="647.4" y2="197.8"/>
</g>
<g>
	<line class="st7" x1="645.3" y1="189.5" x2="646.9" y2="191.1"/>
	<line class="st7" x1="648.5" y1="189.5" x2="646.9" y2="191.1"/>
	<line class="st7" x1="645.3" y1="191.2" x2="648.5" y2="191.2"/>
	<line class="st7" x1="645.3" y1="192.5" x2="648.5" y2="192.5"/>
	<line class="st7" x1="646.9" y1="191.1" x2="646.9" y2="193.6"/>
</g>
<linearGradient id="SVGID_5_" gradientUnits="userSpaceOnUse" x1="565.5" y1="399.5609" x2="565.5" y2="436.1609" gradientTransform="matrix(1 0 0 -1 0 644)">
	<stop  offset="0" style="stop-color:#FE7956"/>
	<stop  offset="1" style="stop-color:#E63332"/>
</linearGradient>
<circle class="st11" cx="565.5" cy="226.1" r="18.3"/>
<g>
	<polyline class="st7" points="559.1,222.3 557.6,222.3 559.3,217.8 571.6,217.8 573.3,222.3 571.9,222.3 	"/>
	<path class="st7" d="M559.1,222.3"/>
	<polyline class="st7" points="559.1,222.3 559.1,234.5 571.8,234.5 571.8,222.3 	"/>
</g>
<g>
	<g>
		<line class="st7" x1="563.6" y1="223.2" x2="565.5" y2="225.1"/>
		<line class="st7" x1="567.4" y1="223.2" x2="565.5" y2="225.1"/>
	</g>
	<g>
		<line class="st7" x1="563.1" y1="225.4" x2="567.8" y2="225.4"/>
		<line class="st7" x1="563.1" y1="227.3" x2="567.8" y2="227.3"/>
		<line class="st7" x1="565.5" y1="229.1" x2="565.5" y2="225.1"/>
	</g>
</g>
<linearGradient id="SVGID_6_" gradientUnits="userSpaceOnUse" x1="499.1" y1="346" x2="499.1" y2="375.764" gradientTransform="matrix(1 0 0 -1 0 644)">
	<stop  offset="0" style="stop-color:#FE7956"/>
	<stop  offset="1" style="stop-color:#E63332"/>
</linearGradient>
<circle class="st12" cx="499.1" cy="283.1" r="14.9"/>
<g>
	<g>
		<path class="st7" d="M493.5,287.9c0,1.1,2.5,2,5.7,2c3.1,0,5.7-0.9,5.7-2"/>
	</g>
	<g>
		<ellipse class="st7" cx="499.1" cy="278.3" rx="5.7" ry="2"/>
		<line class="st7" x1="504.8" y1="278.3" x2="504.8" y2="288.2"/>
		<path class="st7" d="M493.5,283.2c0,1.1,2.5,2,5.7,2c3.1,0,5.7-0.9,5.7-2"/>
		<line class="st7" x1="493.5" y1="278.3" x2="493.5" y2="288.2"/>
	</g>
</g>
<linearGradient id="SVGID_7_" gradientUnits="userSpaceOnUse" x1="554.3" y1="480.8487" x2="554.3" y2="507.9252" gradientTransform="matrix(1 0 0 -1 0 644)">
	<stop  offset="0" style="stop-color:#FE7956"/>
	<stop  offset="1" style="stop-color:#E63332"/>
</linearGradient>
<circle class="st13" cx="554.3" cy="149.6" r="13.5"/>
<path class="st7" d="M561.1,145.6v10.3c0,0.1-0.1,0.2-0.2,0.2h-10.3c-0.1,0-0.2-0.1-0.2-0.2v-13.4c0-0.1,0.1-0.2,0.2-0.2h7.4"/>
<path class="st7" d="M560.9,145.6h-3c-0.1,0-0.2-0.1-0.2-0.2v-3"/>
<line class="st7" x1="558" y1="142.3" x2="561.1" y2="145.5"/>
<line class="st7" x1="552.7" y1="150.4" x2="558.7" y2="150.4"/>
<line class="st7" x1="552.7" y1="153.1" x2="558.7" y2="153.1"/>
<path class="st14" d="M552.7,145.7c0,0.4,0.6,0.8,1.4,0.8c0.8,0,1.4-0.3,1.4-0.8s-0.6-0.8-1.4-0.8
	C553.4,144.9,552.7,145.2,552.7,145.7z"/>
<path class="st14" d="M554.1,146.8c-0.6,0-1.1-0.2-1.3-0.5c0,0.1-0.1,0.2-0.1,0.3c0,0.4,0.6,0.8,1.4,0.8s1.4-0.3,1.4-0.8
	c0-0.1,0-0.2-0.1-0.3C555.2,146.6,554.7,146.8,554.1,146.8z"/>
<path class="st14" d="M554.1,147.7c-0.6,0-1.1-0.2-1.3-0.5c0,0.1-0.1,0.2-0.1,0.3c0,0.4,0.6,0.8,1.4,0.8s1.4-0.3,1.4-0.8
	c0-0.1,0-0.2-0.1-0.3C555.2,147.5,554.7,147.7,554.1,147.7L554.1,147.7z"/>
<linearGradient id="SVGID_8_" gradientUnits="userSpaceOnUse" x1="194.2" y1="538.5433" x2="194.2" y2="585.4115" gradientTransform="matrix(1 0 0 -1 0 644)">
	<stop  offset="0" style="stop-color:#FE7956"/>
	<stop  offset="1" style="stop-color:#E63332"/>
</linearGradient>
<circle class="st15" cx="194.2" cy="82" r="23.4"/>
<linearGradient id="SVGID_9_" gradientUnits="userSpaceOnUse" x1="166.5" y1="480.2343" x2="166.5" y2="508.2934" gradientTransform="matrix(1 0 0 -1 0 644)">
	<stop  offset="0" style="stop-color:#FE7956"/>
	<stop  offset="1" style="stop-color:#E63332"/>
</linearGradient>
<circle class="st16" cx="166.5" cy="149.7" r="14"/>
<path class="st7" d="M171.2,151.6l-4.2,1.3c-0.5,0.2-1.1-0.1-1.3-0.7l-1.3-4.2c-0.2-0.5,0.1-1.1,0.7-1.3l4.2-1.3
	c0.5-0.2,1.1,0.1,1.3,0.7l1.3,4.2C172,150.9,171.7,151.4,171.2,151.6z"/>
<line class="st7" x1="161.6" y1="145.2" x2="164.9" y2="155.5"/>
<line class="st7" x1="157.3" y1="143.6" x2="161.6" y2="145.2"/>
<line class="st7" x1="164.9" y1="155.5" x2="172.9" y2="153"/>
<circle class="st14" cx="164.8" cy="155.4" r="1.7"/>
<linearGradient id="SVGID_10_" gradientUnits="userSpaceOnUse" x1="78.2" y1="443.4445" x2="78.2" y2="468.5" gradientTransform="matrix(1 0 0 -1 0 644)">
	<stop  offset="0" style="stop-color:#FE7956"/>
	<stop  offset="1" style="stop-color:#E63332"/>
</linearGradient>
<circle class="st17" cx="78.2" cy="188" r="12.5"/>
<g>
	<line class="st7" x1="71.8" y1="185.9" x2="78.2" y2="181.7"/>
	<line class="st7" x1="84.6" y1="185.9" x2="78.2" y2="181.7"/>
	<line class="st7" x1="72.2" y1="185.6" x2="72.2" y2="194.3"/>
	<line class="st7" x1="84.1" y1="185.6" x2="84.1" y2="194.3"/>
</g>
<g>
	<line class="st7" x1="74.8" y1="186.8" x2="81.5" y2="186.8"/>
	<line class="st7" x1="74.8" y1="189" x2="81.5" y2="189"/>
	<line class="st7" x1="74.8" y1="191.3" x2="81.5" y2="191.3"/>
	<line class="st7" x1="74.8" y1="193.5" x2="81.5" y2="193.5"/>
</g>
<g>
	<path class="st14" d="M189.6,78.9h-4.7c-0.2,0-0.3,0.1-0.4,0.2l-3.6,5.3c-0.1,0.1-0.1,0.2-0.1,0.3v5.4c0,0.3,0.2,0.5,0.5,0.5h1.9
		c0.3,0,0.5-0.2,0.5-0.5c0-1.1,1-2.1,2.1-2.1s2.1,0.9,2.1,2.1c0,0.3,0.2,0.5,0.5,0.5h1.2c0.3,0,0.5-0.2,0.5-0.5V79.4
		c0-0.1-0.1-0.3-0.1-0.4C189.8,78.9,189.7,78.9,189.6,78.9z M189.1,79.9v9.7h-0.2c-0.3-1.5-1.6-2.6-3.1-2.6s-2.8,1.1-3.1,2.6h-0.9
		v-4.7l3.4-5H189.1z"/>
	<path class="st14" d="M207.2,76.7h-2.9l1-1.9l-6.2-3.2l-0.1-0.1l-0.4,0.9l-2.3-0.9l-1.9,5.1h-4.7c-0.1,0-0.3,0.1-0.4,0.1
		c-0.1,0.1-0.1,0.2-0.1,0.4V90c0,0.3,0.2,0.5,0.5,0.5h9.8c0.3,0,0.5-0.2,0.5-0.5c0-1.1,1-2.1,2.1-2.1s2.1,0.9,2.1,2.1
		c0,0.3,0.2,0.5,0.5,0.5h2.5c0.3,0,0.5-0.2,0.5-0.5V77.2C207.7,77,207.5,76.7,207.2,76.7z M204.1,75.2l-0.8,1.5h-6.1l2.1-4.1
		L204.1,75.2z M195.2,76.7l1.5-4.1l1.4,0.5l-1.9,3.6H195.2z M206.7,77.7v11.9h-1.5c-0.3-1.5-1.6-2.6-3.1-2.6s-2.8,1.1-3.1,2.6h-8.9
		V77.7H206.7z"/>
	<path class="st14" d="M185.8,88.6c-1.1,0-1.9,0.9-1.9,1.9c0,1.1,0.9,1.9,1.9,1.9c1.1,0,1.9-0.9,1.9-1.9
		C187.7,89.4,186.8,88.6,185.8,88.6z M185.8,91.4c-0.5,0-0.9-0.4-0.9-0.9s0.4-0.9,0.9-0.9s0.9,0.4,0.9,0.9S186.3,91.4,185.8,91.4z"
		/>
	<path class="st14" d="M202.1,88.6c-1.1,0-1.9,0.9-1.9,1.9c0,1.1,0.9,1.9,1.9,1.9c1.1,0,1.9-0.9,1.9-1.9
		C204.1,89.4,203.2,88.6,202.1,88.6z M202.1,91.4c-0.5,0-0.9-0.4-0.9-0.9s0.4-0.9,0.9-0.9s0.9,0.4,0.9,0.9S202.6,91.4,202.1,91.4z"
		/>
</g>
<path class="st18" d="M715.7,326c-28.8-11.2-62.7-17.6-99.1-17.6c-81.6,0-151,32.4-177,77.7c-20.1-40.3-62.5-67.1-110.4-65
	c-47.1,2.1-86.5,31.7-103.4,72.7c-23.5-29.2-61.5-48.2-104.4-48.2c-53,0-98.5,29-118.4,70.4h712.6L715.7,326L715.7,326z"/>
<path id="svg_1_2_" class="st19" d="M353.4,86.5c2.9-0.3,5.7-0.4,8.7-0.4"/>
<path id="svg_1_3_" class="st19" d="M298.2,226.9c-13.1-14.9-21-34.5-21-55.9c0-44,33.4-80.1,76.2-84.5"/>
<path id="svg_6_2_" class="st20" d="M314.7,299.6c-52.3-19.3-89.6-69.6-89.6-128.6c0-6,0.4-12,1.2-17.9"/>
<path id="svg_6_1_" class="st20" d="M472.2,252.5c-12.6,17-29.1,31-48.1,40.7"/>
<path id="svg_6_3_" class="st21" d="M431.4,43.1c45.3,24.6,76.1,72.6,76.1,127.9"/>
</svg>
